# xmcd CD database file
#
# Track frame offsets:
#	150
#	19035
#	37965
#	56900
#
# Disc length: 1008 seconds
#
# Revision: 0
# Processed by: cddbd v1.5PL3 Copyright (c) Steve Scherf et al.
# Submitted via: CDex 1.50
#
DISCID=2b03ee04
DTITLE=サニーデイサービス - single;ご機嫌いかが？／街へ出ようよ
DYEAR=1997
DGENRE=JPop
TTITLE0=ご機嫌いかが？（シングルバージョン）
TTITLE1=街へ出ようよ（シングルバージョン）
TTITLE2=ご機嫌いかが？（instrumental）
TTITLE3=街へ出ようよ（instrumental）
EXTD=YEAR: 1997
EXTT0=
EXTT1=
EXTT2=
EXTT3=
PLAYORDER=
